<svg version="1.1" xmlns="http://www.w3.org/2000/svg" viewBox="-287.7439987182617 -1075.2000610351563 3851.264013671875 4136.448266601562"><desc>Created with Snap</desc><defs></defs><g><rect x="-287.7439987182617" y="-1075.2000610351563" width="3851.264013671875" height="4136.448266601562" fill="#00203f" style=""></rect><g transform="matrix(24.7571,0,0,24.7571,400.0326,404.5985)"><g><path d="M78.4,66.5c-5.5,4.8-9.9,15.2-9.9,15.2s-6.9-11.4-12.9-15.3c-9.5-6.1-13.6-6.2-13.6-6.2V65c0,0,7.8,1.2,11.7,4.6   c8.2,7.1,14.8,18.5,14.8,18.5S74.4,75,80.1,70.5C88.1,64.3,95,65,95,65v-4.8C95,60.1,85.1,60.7,78.4,66.5z" fill="#adefd1" style=""></path><path d="M42,80c-6.4-3.6-17.8-4.3-17.8-4.3s8.7-10.1,10.5-17C37.5,47.9,36.2,44,36.2,44l-4.6,1.6c0,0,1.3,7.7-0.6,12.4   c-4.1,9.9-13,19.8-13,19.8s14.6,1.3,20.7,5.1c8.6,5.4,10.2,12,10.2,12l4.6-1.6C53.5,93.4,49.7,84.4,42,80z" fill="#adefd1" style=""></path><path d="M35.3,36.8c11.3-0.9,14.6-3.4,14.6-3.4l-3-3.8c0,0-6.9,3.7-12.1,3.4c-10.9-0.6-23.3-5.6-23.3-5.6s3.5,14,1.8,20.9   C10.9,58.2,5,61.8,5,61.8l3,3.8c0,0,7.5-6.5,9.1-15.1c1.3-7.1-1.7-18-1.7-18S28,37.4,35.3,36.8z" fill="#adefd1" style=""></path><path d="M37.4,17.8c7.3-1.1,16.7-7.4,16.7-7.4s-0.6,13.2,2.4,19.8c4.6,10.2,8,12.5,8,12.5l2.7-4c0,0-5.9-5.2-7.3-10.2   C56.9,18.2,57.7,5,57.7,5s-12.3,7.8-19.5,8.5c-10.2,1-15.6-3.3-15.6-3.3l-2.7,4.1C19.9,14.2,28.6,19.1,37.4,17.8z" fill="#adefd1" style=""></path><path d="M65,60.5c0,0,3.1-7.2,7.4-10.1c9-6.1,21.9-9.7,21.9-9.7s-11.5-8.9-14.5-15.4c-4.2-9.1-1.9-15.6-1.9-15.6l-4.8-1.2   c0,0-1.9,9.6,2.2,17.4c3.4,6.4,12.5,13.2,12.5,13.2S75,42.9,69.6,47.8c-8.3,7.6-9.4,11.5-9.4,11.5L65,60.5z" fill="#adefd1" style=""></path></g><desc>Created with Snap</desc><defs></defs></g><g><g transform="matrix(1.024,0,0,-1.024,0,0)"><path d="M356 561L156 561L156 279L356 279Q521 279 521 421Q521 496 479 528Q438 561 356 561ZM356 233L156 233L156 13Q156 3 148 -4Q140 -10 129 -10Q118 -10 110 -4Q102 3 102 13L102 561L42 561Q32 561 25 567Q19 574 19 584Q19 594 25 601Q32 608 42 608L356 608Q575 608 575 421Q575 286 456 247L585 24Q587 20 587 15Q587 1 575 -5Q564 -11 555 -11Q546 -11 539 0L402 235Q376 233 356 233ZM980 220Q977 274 948 306Q920 338 866 338Q813 338 777 305Q741 273 732 220L980 220ZM982 96Q989 108 998 108Q1007 108 1016 103Q1025 99 1028 89Q1032 80 1027 72Q976 -10 865 -10Q777 -10 726 46Q676 103 676 189Q676 275 728 329Q780 384 865 384Q950 384 991 333Q1033 282 1033 197Q1033 174 1007 174L730 173Q734 111 770 73Q807 36 865 36Q943 36 982 96ZM1388 136L1388 155Q1322 173 1275 173Q1229 173 1199 155Q1170 137 1170 104Q1170 72 1189 54Q1208 36 1241 36Q1333 36 1388 136ZM1468 47L1507 47Q1517 47 1523 40Q1530 33 1530 23Q1530 13 1523 6Q1517 0 1507 0L1463 0Q1427 0 1407 16Q1388 32 1388 61Q1388 66 1389 72Q1336 -10 1235 -10Q1179 -10 1147 20Q1116 50 1116 103Q1116 157 1158 187Q1201 218 1264 218Q1328 218 1388 197L1388 266Q1388 314 1353 328Q1326 338 1278 338Q1231 338 1191 322L1191 259Q1191 249 1183 242Q1175 236 1164 236Q1153 236 1145 242Q1137 249 1137 259L1137 335Q1137 348 1150 355Q1199 384 1280 384Q1361 384 1401 357Q1441 331 1441 266L1441 66Q1441 47 1468 47ZM1744 338Q1687 338 1653 297Q1619 256 1619 186Q1619 116 1652 76Q1686 36 1744 36Q1828 36 1878 131L1878 278Q1852 303 1815 320Q1779 338 1744 338ZM1878 331L1878 703L1812 703Q1802 703 1795 709Q1789 716 1789 726Q1789 736 1795 743Q1802 750 1812 750L1905 750Q1916 750 1924 743Q1932 736 1932 726L1932 66Q1932 47 1952 47L1998 47Q2008 47 2014 40Q2021 34 2021 24Q2021 14 2014 7Q2008 0 1998 0L1945 0Q1880 0 1882 71Q1860 37 1824 13Q1789 -10 1744 -10Q1655 -10 1610 47Q1566 104 1566 188Q1566 272 1612 328Q1659 384 1740 384Q1821 384 1878 331ZM2179 351L2179 13Q2179 3 2171 -4Q2163 -10 2152 -10Q2141 -10 2133 -4Q2125 3 2125 13L2125 327L2059 327Q2049 327 2042 333Q2036 340 2036 350Q2036 360 2042 367Q2049 374 2059 374L2156 374Q2179 374 2179 351ZM2123 524Q2114 534 2114 548Q2114 562 2123 572Q2132 582 2148 582Q2164 582 2173 572Q2183 562 2183 548Q2183 534 2173 524Q2164 514 2148 514Q2132 514 2123 524ZM2322 327L2275 327Q2265 327 2258 333Q2252 340 2252 350Q2252 360 2258 367Q2265 374 2275 374L2329 374Q2391 374 2391 306Q2451 384 2542 384Q2596 384 2630 356Q2665 329 2665 276L2665 66Q2665 47 2692 47L2731 47Q2741 47 2747 40Q2754 33 2754 23Q2754 13 2747 6Q2741 0 2731 0L2692 0Q2611 0 2611 65L2611 276Q2611 306 2592 322Q2574 338 2541 338Q2449 338 2395 242L2395 13Q2395 3 2387 -4Q2379 -10 2368 -10Q2357 -10 2349 -4Q2341 3 2341 13L2341 308Q2341 327 2322 327ZM2861 -11Q2823 -33 2823 -77Q2823 -120 2859 -145Q2896 -170 2960 -170Q3024 -170 3075 -148Q3126 -126 3126 -88Q3126 -47 3054 -39Q3029 -37 2895 -19Q2873 -15 2861 -11ZM3074 241Q3074 285 3044 312Q3015 340 2968 340Q2922 340 2892 312Q2863 285 2863 241Q2863 197 2892 169Q2922 142 2968 142Q3015 142 3044 169Q3074 197 3074 241ZM3104 514Q3120 514 3126 497Q3140 462 3140 434Q3140 376 3092 336Q3128 299 3128 237Q3128 175 3081 135Q3035 96 2968 96Q2938 96 2911 104Q2888 97 2870 82Q2853 68 2853 54Q2853 35 2903 26Q2925 23 3062 7Q3180 -8 3180 -88Q3180 -150 3109 -183Q3039 -216 2959 -216Q2880 -216 2824 -182Q2769 -147 2769 -85Q2769 -23 2822 9Q2800 22 2800 54Q2800 98 2869 125Q2810 170 2810 237Q2810 305 2854 345Q2898 386 2960 386Q3023 386 3059 363Q3086 390 3086 432Q3086 453 3079 471Q3067 501 3091 511Q3098 514 3104 514Z" fill="#ffffff" style=""></path></g></g></g></svg>